<svg id="visual" viewBox="0 0 900 600" width="900" height="600" xmlns="http://www.w3.org/2000/svg" xmlns:xlink="http://www.w3.org/1999/xlink" version="1.1"><g stroke-width="1" stroke-linejoin="bevel"><path d="M413 288L493 282L485 191Z" fill="#21694f" stroke="#21694f"></path><path d="M485 191L394 202L413 288Z" fill="#2d8365" stroke="#2d8365"></path><path d="M493 282L580 182L485 191Z" fill="#21694f" stroke="#21694f"></path><path d="M490 94L381 111L485 191Z" fill="#2d8365" stroke="#2d8365"></path><path d="M485 191L381 111L394 202Z" fill="#2d8365" stroke="#2d8365"></path><path d="M580 182L490 94L485 191Z" fill="#2a7c60" stroke="#2a7c60"></path><path d="M381 111L297 198L394 202Z" fill="#18563f" stroke="#18563f"></path><path d="M394 202L297 198L413 288Z" fill="#246f54" stroke="#246f54"></path><path d="M397 409L506 390L413 288Z" fill="#359777" stroke="#359777"></path><path d="M413 288L506 390L493 282Z" fill="#18563f" stroke="#18563f"></path><path d="M493 282L611 289L580 182Z" fill="#21694f" stroke="#21694f"></path><path d="M506 390L611 289L493 282Z" fill="#18563f" stroke="#18563f"></path><path d="M297 198L296 318L413 288Z" fill="#2a7c60" stroke="#2a7c60"></path><path d="M296 318L397 409L413 288Z" fill="#2a7c60" stroke="#2a7c60"></path><path d="M712 216L592 117L580 182Z" fill="#27765a" stroke="#27765a"></path><path d="M580 182L592 117L490 94Z" fill="#1b5c44" stroke="#1b5c44"></path><path d="M318 0L289 108L381 111Z" fill="#1e634a" stroke="#1e634a"></path><path d="M381 111L289 108L297 198Z" fill="#2d8365" stroke="#2d8365"></path><path d="M207 396L289 388L296 318Z" fill="#359777" stroke="#359777"></path><path d="M296 318L289 388L397 409Z" fill="#1b5c44" stroke="#1b5c44"></path><path d="M210 207L296 318L297 198Z" fill="#21694f" stroke="#21694f"></path><path d="M506 390L593 407L611 289Z" fill="#18563f" stroke="#18563f"></path><path d="M479 487L593 407L506 390Z" fill="#2d8365" stroke="#2d8365"></path><path d="M219 109L210 207L297 198Z" fill="#2d8365" stroke="#2d8365"></path><path d="M490 94L416 0L381 111Z" fill="#1b5c44" stroke="#1b5c44"></path><path d="M504 0L416 0L490 94Z" fill="#2a7c60" stroke="#2a7c60"></path><path d="M590 0L504 0L490 94Z" fill="#246f54" stroke="#246f54"></path><path d="M392 513L479 487L397 409Z" fill="#329071" stroke="#329071"></path><path d="M397 409L479 487L506 390Z" fill="#246f54" stroke="#246f54"></path><path d="M711 407L705 281L611 289Z" fill="#1e634a" stroke="#1e634a"></path><path d="M611 289L712 216L580 182Z" fill="#329071" stroke="#329071"></path><path d="M705 281L712 216L611 289Z" fill="#2a7c60" stroke="#2a7c60"></path><path d="M592 117L590 0L490 94Z" fill="#1e634a" stroke="#1e634a"></path><path d="M289 108L219 109L297 198Z" fill="#21694f" stroke="#21694f"></path><path d="M206 0L219 109L289 108Z" fill="#246f54" stroke="#246f54"></path><path d="M119 301L186 288L107 197Z" fill="#1e634a" stroke="#1e634a"></path><path d="M210 207L186 288L296 318Z" fill="#359777" stroke="#359777"></path><path d="M416 0L318 0L381 111Z" fill="#2a7c60" stroke="#2a7c60"></path><path d="M712 103L590 0L592 117Z" fill="#2f8a6b" stroke="#2f8a6b"></path><path d="M299 484L397 409L289 388Z" fill="#1b5c44" stroke="#1b5c44"></path><path d="M299 484L392 513L397 409Z" fill="#1e634a" stroke="#1e634a"></path><path d="M207 396L299 484L289 388Z" fill="#246f54" stroke="#246f54"></path><path d="M186 288L207 396L296 318Z" fill="#27765a" stroke="#27765a"></path><path d="M712 216L712 103L592 117Z" fill="#359777" stroke="#359777"></path><path d="M479 487L619 495L593 407Z" fill="#1e634a" stroke="#1e634a"></path><path d="M593 407L711 407L611 289Z" fill="#329071" stroke="#329071"></path><path d="M519 600L619 495L479 487Z" fill="#2f8a6b" stroke="#2f8a6b"></path><path d="M619 495L711 407L593 407Z" fill="#2d8365" stroke="#2d8365"></path><path d="M705 281L794 209L712 216Z" fill="#2d8365" stroke="#2d8365"></path><path d="M107 197L186 288L210 207Z" fill="#1b5c44" stroke="#1b5c44"></path><path d="M186 288L119 301L207 396Z" fill="#27765a" stroke="#27765a"></path><path d="M318 0L206 0L289 108Z" fill="#1e634a" stroke="#1e634a"></path><path d="M108 118L107 197L210 207Z" fill="#2f8a6b" stroke="#2f8a6b"></path><path d="M108 118L210 207L219 109Z" fill="#1b5c44" stroke="#1b5c44"></path><path d="M807 287L794 209L705 281Z" fill="#1b5c44" stroke="#1b5c44"></path><path d="M712 216L794 209L712 103Z" fill="#1b5c44" stroke="#1b5c44"></path><path d="M291 600L395 600L392 513Z" fill="#27765a" stroke="#27765a"></path><path d="M207 396L219 500L299 484Z" fill="#1b5c44" stroke="#1b5c44"></path><path d="M107 413L219 500L207 396Z" fill="#2f8a6b" stroke="#2f8a6b"></path><path d="M786 0L714 0L712 103Z" fill="#21694f" stroke="#21694f"></path><path d="M712 103L714 0L590 0Z" fill="#246f54" stroke="#246f54"></path><path d="M811 385L807 287L705 281Z" fill="#329071" stroke="#329071"></path><path d="M206 0L108 118L219 109Z" fill="#27765a" stroke="#27765a"></path><path d="M291 600L392 513L299 484Z" fill="#21694f" stroke="#21694f"></path><path d="M392 513L395 600L479 487Z" fill="#1b5c44" stroke="#1b5c44"></path><path d="M395 600L519 600L479 487Z" fill="#1e634a" stroke="#1e634a"></path><path d="M619 495L714 496L711 407Z" fill="#18563f" stroke="#18563f"></path><path d="M687 600L714 496L619 495Z" fill="#359777" stroke="#359777"></path><path d="M711 407L811 385L705 281Z" fill="#1b5c44" stroke="#1b5c44"></path><path d="M0 299L107 413L119 301Z" fill="#18563f" stroke="#18563f"></path><path d="M119 301L107 413L207 396Z" fill="#359777" stroke="#359777"></path><path d="M519 600L597 600L619 495Z" fill="#2f8a6b" stroke="#2f8a6b"></path><path d="M779 498L811 385L711 407Z" fill="#21694f" stroke="#21694f"></path><path d="M794 209L813 94L712 103Z" fill="#1b5c44" stroke="#1b5c44"></path><path d="M900 189L813 94L794 209Z" fill="#2f8a6b" stroke="#2f8a6b"></path><path d="M900 189L794 209L807 287Z" fill="#2a7c60" stroke="#2a7c60"></path><path d="M219 500L291 600L299 484Z" fill="#2a7c60" stroke="#2a7c60"></path><path d="M217 600L291 600L219 500Z" fill="#2f8a6b" stroke="#2f8a6b"></path><path d="M813 94L786 0L712 103Z" fill="#1b5c44" stroke="#1b5c44"></path><path d="M714 496L779 498L711 407Z" fill="#329071" stroke="#329071"></path><path d="M687 600L779 498L714 496Z" fill="#2a7c60" stroke="#2a7c60"></path><path d="M105 600L217 600L219 500Z" fill="#27765a" stroke="#27765a"></path><path d="M597 600L687 600L619 495Z" fill="#329071" stroke="#329071"></path><path d="M108 118L0 196L107 197Z" fill="#2f8a6b" stroke="#2f8a6b"></path><path d="M0 417L80 497L107 413Z" fill="#1b5c44" stroke="#1b5c44"></path><path d="M206 0L83 0L108 118Z" fill="#359777" stroke="#359777"></path><path d="M0 299L119 301L107 197Z" fill="#246f54" stroke="#246f54"></path><path d="M107 413L80 497L219 500Z" fill="#2a7c60" stroke="#2a7c60"></path><path d="M0 99L0 196L108 118Z" fill="#359777" stroke="#359777"></path><path d="M900 294L807 287L811 385Z" fill="#2f8a6b" stroke="#2f8a6b"></path><path d="M900 294L900 189L807 287Z" fill="#2f8a6b" stroke="#2f8a6b"></path><path d="M813 94L900 0L786 0Z" fill="#21694f" stroke="#21694f"></path><path d="M0 196L0 299L107 197Z" fill="#246f54" stroke="#246f54"></path><path d="M900 401L900 294L811 385Z" fill="#18563f" stroke="#18563f"></path><path d="M83 0L0 99L108 118Z" fill="#246f54" stroke="#246f54"></path><path d="M900 189L900 91L813 94Z" fill="#1e634a" stroke="#1e634a"></path><path d="M900 503L811 385L779 498Z" fill="#329071" stroke="#329071"></path><path d="M900 503L900 401L811 385Z" fill="#2f8a6b" stroke="#2f8a6b"></path><path d="M0 299L0 417L107 413Z" fill="#27765a" stroke="#27765a"></path><path d="M80 497L105 600L219 500Z" fill="#2d8365" stroke="#2d8365"></path><path d="M0 600L105 600L80 497Z" fill="#1b5c44" stroke="#1b5c44"></path><path d="M83 0L0 0L0 99Z" fill="#21694f" stroke="#21694f"></path><path d="M0 417L0 481L80 497Z" fill="#18563f" stroke="#18563f"></path><path d="M900 91L900 0L813 94Z" fill="#359777" stroke="#359777"></path><path d="M687 600L814 600L779 498Z" fill="#1e634a" stroke="#1e634a"></path><path d="M814 600L900 503L779 498Z" fill="#2d8365" stroke="#2d8365"></path><path d="M0 481L0 600L80 497Z" fill="#1e634a" stroke="#1e634a"></path><path d="M814 600L900 600L900 503Z" fill="#329071" stroke="#329071"></path></g></svg>