<svg id="visual" viewBox="0 0 1920 1080" width="1920" height="1080" xmlns="http://www.w3.org/2000/svg" xmlns:xlink="http://www.w3.org/1999/xlink" version="1.1"><g stroke-width="1" stroke-linejoin="bevel"><path d="M1191 513L567 0L679 579Z" fill="#4fdeaf" stroke="#4fdeaf"></path><path d="M1191 513L1353 0L567 0Z" fill="#3cae88" stroke="#3cae88"></path><path d="M0 552L570 1080L679 579Z" fill="#226b52" stroke="#226b52"></path><path d="M679 579L1313 1080L1191 513Z" fill="#339776" stroke="#339776"></path><path d="M567 0L0 552L679 579Z" fill="#195641" stroke="#195641"></path><path d="M570 1080L1313 1080L679 579Z" fill="#011d13" stroke="#011d13"></path><path d="M1920 576L1920 0L1353 0Z" fill="#195641" stroke="#195641"></path><path d="M0 0L0 552L567 0Z" fill="#195641" stroke="#195641"></path><path d="M1920 576L1353 0L1191 513Z" fill="#339776" stroke="#339776"></path><path d="M1313 1080L1920 576L1191 513Z" fill="#114231" stroke="#114231"></path><path d="M0 552L0 1080L570 1080Z" fill="#46c69b" stroke="#46c69b"></path><path d="M1313 1080L1920 1080L1920 576Z" fill="#226b52" stroke="#226b52"></path></g></svg>